<?xml version="1.0" encoding="utf-8" ?>
<svg baseProfile="full" height="200mm" version="1.1" viewBox="0,0,200,200" width="200mm" xmlns="http://www.w3.org/2000/svg" xmlns:ev="http://www.w3.org/2001/xml-events" xmlns:xlink="http://www.w3.org/1999/xlink"><defs /><rect fill="#1a1a1a" height="200" width="200" x="0" y="0" /><text alignment-baseline="middle" fill="#e1ed5e" style="dominant-baseline: central; font-size:9.0px; font-family:Arial;" text-anchor="middle" x="100.0" y="100.0">2024</text><line stroke="#e1ed5e" stroke-width="0.3" x1="100.0" x2="100.0" y1="15.0" y2="10.0" /><path d="M 100.0 14.0 a86.0,86.0 0 0,1 42.35913384403234,11.155469271406648" fill="none" id="id61" stroke="none" /><text fill="#e1ed5e" style="font-size:6.75px; font-family:Arial;" text-anchor="middle"><textPath startOffset="22.145653131862478" xlink:href="#id61">January</textPath></text><line stroke="#e1ed5e" stroke-width="0.3" x1="143.13028292997686" x2="145.6673583964461" y1="26.7553504044142" y2="22.446841604673864" /><path d="M 143.63769802327073 25.89364864446614 a86.0,86.0 0 0,1 29.32050498858742,28.57503671076993" fill="none" id="id62" stroke="none" /><text fill="#e1ed5e" style="font-size:6.75px; font-family:Arial;" text-anchor="middle"><textPath startOffset="20.669276256404974" xlink:href="#id62">February</textPath></text><line stroke="#e1ed5e" stroke-width="0.3" x1="172.87174338648825" x2="177.1583165268699" y1="56.24261187166439" y2="53.66864786411523" /><path d="M 173.72905801456457 55.72781907015455 a86.0,86.0 0 0,1 12.242430191666344,42.057860355516425" fill="none" id="id63" stroke="none" /><text fill="#e1ed5e" style="font-size:6.75px; font-family:Arial;" text-anchor="middle"><textPath startOffset="22.145653131862474" xlink:href="#id63">March</textPath></text><path d="M 120.7213421655516 96.59031103205396 l 33.2495186432952 -5.471195639828478 a54.69665371724785,54.69665371724785 0 0,0 0.1444994634887105,0.9277902125184404 l -33.338539598922175 4.899617245378597" fill="#b4ff20" stroke="none" /><path d="M 120.77682067341334 96.94652285012252 l 20.552668929672823 -3.0205345626368536 a41.773440475203486,41.773440475203486 0 0,0 0.09817849284789143,0.7103706666858541 l -20.601491939075927 2.6672755877509142" fill="#ff830c" stroke="none" /><line stroke="#e1ed5e" stroke-width="0.3" x1="184.99686870605535" x2="189.99668451229388" y1="99.2704041080226" y2="99.22748670261217" /><path d="M 185.99683186730306 99.26182062694052 a86.0,86.0 0 0,1 -10.086455211305974,41.156179273409016" fill="none" id="id64" stroke="none" /><text fill="#e1ed5e" style="font-size:6.75px; font-family:Arial;" text-anchor="middle"><textPath startOffset="21.40746469413373" xlink:href="#id64">April</textPath></text><path d="M 119.31412917781788 108.2440532568976 l 28.922056545455156 12.345106127465325 a52.44657374209291,52.44657374209291 0 0,0 -0.36054801203128073,0.8250044103481669 l -28.70587465140691 -12.839772607589335" fill="#d4ff1c" stroke="none" /><line stroke="#e1ed5e" stroke-width="0.3" x1="174.33088141563837" x2="178.70328620479359" y1="141.23008692659167" y2="143.65538615756765" /><path d="M 175.20536237346943 141.71514677278685 a86.0,86.0 0 0,1 -30.301960400862466,31.631185727798858" fill="none" id="id65" stroke="none" /><text fill="#e1ed5e" style="font-size:6.75px; font-family:Arial;" text-anchor="middle"><textPath startOffset="22.145653131862474" xlink:href="#id65">May</textPath></text><path d="M 112.16784306229584 117.11559508785304 l 18.64389125169429 26.224967883975705 a53.17675591977165,53.17675591977165 0 0,0 -0.7485385754923524,0.5225380601290737 l -18.190957585028176 -26.5411507599099" fill="#caff1d" stroke="none" /><line stroke="#e1ed5e" stroke-width="0.3" x1="143.1302829299769" x2="145.66735839644613" y1="173.24464959558577" y2="177.55315839532614" /><path d="M 143.63769802327073 174.10635135553383 a86.0,86.0 0 0,1 -40.68552437913181,11.842963189579606" fill="none" id="id66" stroke="none" /><text fill="#e1ed5e" style="font-size:6.75px; font-family:Arial;" text-anchor="middle"><textPath startOffset="21.407464694133747" xlink:href="#id66">June</textPath></text><line stroke="#e1ed5e" stroke-width="0.3" x1="101.45913802915013" x2="101.54496967792366" y1="184.9874750549273" y2="189.98673829345242" /><path d="M 101.47630435890484 185.9873277026323 a86.0,86.0 0 0,1 -42.54439059252881,-10.42667462771756" fill="none" id="id67" stroke="none" /><text fill="#e1ed5e" style="font-size:6.75px; font-family:Arial;" text-anchor="middle"><textPath startOffset="22.145653131862474" xlink:href="#id67">July</textPath></text><path d="M 97.48249496171623 120.84855314841334 l -3.816739031893752 31.608074403023757 a52.83767994538338,52.83767994538338 0 0,0 -0.8995544009671703,-0.11646532691171856 l 4.358771254751717 -31.537897479911642" fill="#ceff1d" stroke="none" /><line stroke="#e1ed5e" stroke-width="0.3" x1="58.13341422392154" x2="55.67067388415222" y1="173.97424548756322" y2="178.32567169271397" /><path d="M 57.64086615596768 174.84453072859336 a86.0,86.0 0 0,1 -31.369924170532247,-30.572349798747897" fill="none" id="id68" stroke="none" /><text fill="#e1ed5e" style="font-size:6.75px; font-family:Arial;" text-anchor="middle"><textPath startOffset="22.145653131862474" xlink:href="#id68">August</textPath></text><path d="M 89.34428304082925 118.09573695890944 l -24.864584126126836 42.22549976346986 a70.00245273494004,70.00245273494004 0 0,0 -1.0302602429050907,-0.6186416740833789 l 25.585777125589352 -41.792444088850566" fill="#37ff7b" stroke="none" /><path d="M 88.4268655584334 117.5232005979908 l -34.7194033246998 52.56960179397239 a84.0,84.0 0 0,0 -1.1964148476119774,-0.8050013037715154 l 35.61671446040878 -51.96585081614375" fill="#4dd2ff" stroke="none" /><path d="M 86.68645165197938 116.24036423190432 l -22.94434258219579 27.98836725236001 a57.19104251029723,57.19104251029723 0 0,0 -0.7539023058518348,-0.6289321170062588 l 23.42141922220952 -27.590372951441882" fill="#91ff23" stroke="none" /><path d="M 86.40962598614128 116.0094264158162 l -8.584260987679778 10.112237858669555 a34.264497397749786,34.264497397749786 0 0,0 -0.44514561931991137,-0.3845061838060471 l 8.756586086762553 -9.963387542398786" fill="#ff0000" stroke="none" /><path d="M 85.86807049272751 115.53346607816431 l -24.130776442099837 26.52395039971215 a56.858253115635605,56.858253115635605 0 0,0 -0.7163333823567641,-0.6630274844729824 l 24.582539595770566 -26.10580516910679" fill="#96ff23" stroke="none" /><path d="M 84.1078160697243 113.72728997021213 l -34.20612121711409 29.546432810220068 a66.20011527118876,66.20011527118876 0 0,0 -0.7354688947249611,-0.8663805086757714 l 34.708284675346164 -28.95488551909474" fill="#31ff44" stroke="none" /><line stroke="#e1ed5e" stroke-width="0.3" x1="26.387840678322732" x2="22.057713659400548" y1="142.50000000000003" y2="145.00000000000006" /><path d="M 25.521815274538298 143.00000000000003 a86.0,86.0 0 0,1 -11.493303480769221,-40.785679425670985" fill="none" id="id69" stroke="none" /><text fill="#e1ed5e" style="font-size:6.75px; font-family:Arial;" text-anchor="middle"><textPath startOffset="21.40746469413373" xlink:href="#id69">September</textPath></text><path d="M 81.4637452351635 109.86951160357371 l -39.79934402103044 21.190908984231744 a66.08927154082582,66.08927154082582 0 0,0 -0.5245975377704375,-1.005984949452935 l 40.15724962777583 -20.504577791674308" fill="#31ff42" stroke="none" /><path d="M 79.03789590574601 101.26102812881392 l -45.167807103299495 2.7171831137750493 a66.24946278791226,66.24946278791226 0 0,0 -0.0585468918428375,-1.1357940608231933 l 45.207795584598905 -1.941417259575125" fill="#32ff44" stroke="none" /><line stroke="#e1ed5e" stroke-width="0.3" x1="15.003131293944662" x2="10.003315487706104" y1="100.72959589197737" y2="100.7725132973878" /><path d="M 14.003168132696942 100.73817937305945 a86.0,86.0 0 0,1 10.791469493833604,-42.45332614584628" fill="none" id="id70" stroke="none" /><text fill="#e1ed5e" style="font-size:6.75px; font-family:Arial;" text-anchor="middle"><textPath startOffset="22.145653131862435" xlink:href="#id70">October</textPath></text><line stroke="#e1ed5e" stroke-width="0.3" x1="26.387840678322718" x2="22.05771365940052" y1="57.49999999999999" y2="54.99999999999999" /><path d="M 25.521815274538284 56.99999999999999 a86.0,86.0 0 0,1 29.574782752854787,-30.34633250058573" fill="none" id="id71" stroke="none" /><text fill="#e1ed5e" style="font-size:6.75px; font-family:Arial;" text-anchor="middle"><textPath startOffset="21.40746469413373" xlink:href="#id71">November</textPath></text><line stroke="#e1ed5e" stroke-width="0.3" x1="56.869717070023135" x2="54.33264160355391" y1="26.7553504044142" y2="22.446841604673864" /><path d="M 56.362301976729285 25.89364864446614 a86.0,86.0 0 0,1 42.16139366436587,-11.88097634709845" fill="none" id="id72" stroke="none" /><text fill="#e1ed5e" style="font-size:6.75px; font-family:Arial;" text-anchor="middle"><textPath startOffset="22.145653131862474" xlink:href="#id72">December</textPath></text></svg>